<?xml version="1.0" standalone="no"?>
<!DOCTYPE svg PUBLIC "-//W3C//DTD SVG 20010904//EN"
 "http://www.w3.org/TR/2001/REC-SVG-20010904/DTD/svg10.dtd">
<svg version="1.0" xmlns="http://www.w3.org/2000/svg"
 width="260.000000pt" height="260.000000pt" viewBox="0 0 260.000000 260.000000"
 preserveAspectRatio="xMidYMid meet">
<metadata>
Created by potrace 1.11, written by Peter Selinger 2001-2013
</metadata>
<g transform="translate(0.000000,260.000000) scale(0.100000,-0.100000)"
fill="#000000" stroke="none">
<path d="M1175 2594 c-220 -32 -327 -64 -475 -140 -236 -121 -457 -350 -570
-589 -58 -123 -85 -204 -104 -315 -71 -416 33 -802 295 -1095 259 -289 548
-428 924 -442 399 -15 718 114 993 401 157 165 264 353 319 564 31 119 43 387
24 523 -39 273 -161 511 -371 719 -194 193 -412 311 -657 355 -87 16 -320 27
-378 19z m235 -214 c236 -25 420 -105 604 -264 l59 -50 -84 -18 c-141 -28
-236 -45 -423 -74 l-178 -28 -127 17 c-145 20 -279 21 -403 3 l-87 -12 -88 88
c-99 99 -100 82 7 157 136 95 319 162 487 180 111 12 127 12 233 1z m-941
-443 c-2 -2 -17 -7 -32 -11 l-28 -7 17 26 c15 24 19 25 32 11 9 -9 14 -17 11
-19z m126 -118 l80 -81 -72 37 c-39 21 -91 39 -115 42 -41 5 -46 3 -86 -41
-49 -53 -50 -75 -6 -95 33 -14 112 -134 146 -219 30 -78 130 -236 171 -269 36
-31 45 -33 112 -33 54 0 76 -4 86 -16 9 -11 22 -14 42 -10 24 5 27 4 18 -8 -8
-9 -8 -21 -2 -39 5 -14 7 -34 5 -44 -4 -14 5 -27 30 -47 21 -15 50 -54 66 -87
29 -57 99 -139 119 -139 20 0 33 74 29 154 -5 97 -39 177 -95 226 -32 28 -42
32 -80 27 -31 -3 -41 -1 -35 7 16 20 23 67 16 112 -8 53 -58 109 -125 141 -24
12 -58 36 -76 55 -29 30 -126 208 -119 216 2 2 21 -18 42 -43 22 -25 68 -74
104 -109 36 -35 140 -137 231 -227 l166 -164 21 -80 c34 -127 55 -265 48 -315
-18 -121 -83 -281 -132 -319 -54 -42 -186 -21 -340 54 -91 45 -142 89 -276
240 -50 56 -128 172 -152 225 -66 149 -76 182 -91 296 -8 65 -25 171 -37 234
-18 98 -19 121 -9 160 13 50 78 185 96 200 11 9 107 38 130 39 6 1 46 -35 90
-80z m-329 -465 c17 -150 28 -204 55 -263 10 -24 19 -48 19 -53 0 -21 86 -185
117 -224 18 -23 33 -45 33 -50 1 -14 180 -197 237 -241 103 -80 287 -139 408
-130 127 10 275 46 345 85 75 41 160 100 160 111 0 4 19 29 43 54 l43 47 119
-120 119 -119 -25 -20 c-43 -35 -172 -108 -241 -135 -140 -55 -229 -70 -408
-70 -146 1 -177 4 -265 27 -198 53 -341 139 -500 301 -149 152 -222 276 -276
472 -24 87 -37 326 -24 430 10 83 23 51 41 -102z m2111 -101 c-6 -152 -32
-268 -87 -389 -32 -70 -128 -222 -155 -244 -14 -12 -33 3 -146 116 -71 71
-129 133 -129 137 0 21 134 139 230 201 132 87 228 182 260 259 13 31 26 57
28 57 3 0 2 -62 -1 -137z"/>
<path d="M327 1673 c-4 -3 -7 -24 -7 -46 l0 -39 38 7 c46 8 49 12 34 33 -7 9
-15 25 -18 35 -6 17 -34 23 -47 10z"/>
<path d="M327 1563 c-21 -21 4 -197 38 -262 30 -57 85 -118 122 -132 30 -12
179 -16 190 -5 4 4 -5 17 -20 29 -16 13 -45 64 -72 124 -49 113 -99 206 -118
221 -13 10 -96 32 -120 32 -7 0 -17 -3 -20 -7z"/>
<path d="M424 1092 c4 -28 13 -70 22 -94 20 -58 109 -218 142 -256 15 -16 41
-46 57 -65 52 -60 122 -61 156 -2 12 22 18 63 22 154 l4 123 -28 33 c-23 25
-28 39 -23 61 4 23 0 34 -19 52 -24 22 -34 24 -164 26 -76 1 -147 6 -157 11
-18 8 -19 5 -12 -43z"/>
<path d="M812 1098 c2 -16 14 -25 41 -33 22 -6 43 -19 49 -28 15 -28 5 -71
-19 -82 -30 -13 -29 -25 0 -25 13 0 34 11 47 25 33 35 32 83 -4 129 -24 32
-32 36 -72 36 -41 0 -45 -2 -42 -22z"/>
<path d="M953 924 c-19 -21 -41 -34 -56 -34 -20 0 -26 -6 -30 -32 -6 -43 6
-124 34 -228 26 -98 67 -150 134 -169 53 -15 70 -14 105 4 39 20 59 61 69 140
8 71 -4 109 -39 120 -25 8 -100 93 -101 114 -1 27 -53 116 -69 117 -8 1 -29
-14 -47 -32z"/>
<path d="M765 580 c-7 -12 91 -62 113 -58 29 5 19 32 -18 50 -38 20 -85 24
-95 8z"/>
</g>
</svg>
